<svg width="36" height="36" viewBox="0 0 36 36" fill="none" xmlns="http://www.w3.org/2000/svg">
<rect width="36" height="36" rx="10" fill="#006843"/>
<path d="M21.1367 22.3633H15.8633C15.6206 22.3633 15.4238 22.56 15.4238 22.8027C15.4238 23.0454 15.6206 23.2422 15.8633 23.2422H21.1367C21.3794 23.2422 21.5762 23.0454 21.5762 22.8027C21.5762 22.56 21.3794 22.3633 21.1367 22.3633Z" fill="white"/>
<path d="M21.1367 18.8477H15.8633C15.6206 18.8477 15.4238 19.0444 15.4238 19.2871C15.4238 19.5298 15.6206 19.7266 15.8633 19.7266H21.1367C21.3794 19.7266 21.5762 19.5298 21.5762 19.2871C21.5762 19.0444 21.3794 18.8477 21.1367 18.8477Z" fill="white"/>
<path d="M21.1367 20.6055H15.8633C15.6206 20.6055 15.4238 20.8022 15.4238 21.0449C15.4238 21.2876 15.6206 21.4844 15.8633 21.4844H21.1367C21.3794 21.4844 21.5762 21.2876 21.5762 21.0449C21.5762 20.8022 21.3794 20.6055 21.1367 20.6055Z" fill="white"/>
<path d="M20.6973 10H14.5449V13.8086H20.6973V10Z" fill="white"/>
<path d="M25.8713 12.4725L23.5275 10.1287C23.4451 10.0463 23.3333 10 23.2168 10H21.5762V14.248C21.5762 14.4907 21.3794 14.6875 21.1367 14.6875H14.1055C13.8628 14.6875 13.666 14.4907 13.666 14.248V10H11.4395C11.1968 10 11 10.1968 11 10.4395V24.5605C11 24.8032 11.1968 25 11.4395 25C11.5755 25 25.3778 25 25.5605 25C25.8032 25 26 24.8032 26 24.5605V12.7832C26 12.6667 25.9537 12.5549 25.8713 12.4725ZM22.4551 24.1211H14.5449V17.9688H22.4551V24.1211Z" fill="white"/>
</svg>
