<svg width="15" height="15" viewBox="0 0 15 15" fill="none" xmlns="http://www.w3.org/2000/svg">
<path d="M14.7902 1.33199L13.754 0.308137C13.4736 0.0277635 13.0104 0.0277635 12.7178 0.308137L7.54922 5.47665L2.28319 0.210616C2.00269 -0.0698798 1.53947 -0.0698798 1.24702 0.210616L0.21086 1.24678C-0.0696356 1.52715 -0.0696356 1.99038 0.21086 2.28294L5.46482 7.53691L0.308381 12.7177C0.0280076 12.9981 0.0280076 13.4613 0.308381 13.7539L1.34455 14.7901C1.62492 15.0704 2.08815 15.0704 2.38071 14.7901L7.54922 9.62142L12.7178 14.7901C12.9982 15.0704 13.4614 15.0704 13.754 14.7901L14.7902 13.7539C15.0705 13.4735 15.0705 13.0103 14.7902 12.7177L9.60935 7.5491L14.778 2.38059C15.0705 2.08778 15.0705 1.62455 14.7902 1.33199Z" fill="#006843"/>
</svg>
