<svg width="18" height="18" viewBox="0 0 18 18" fill="none" xmlns="http://www.w3.org/2000/svg">
<path d="M16.3036 1.69634C14.0418 -0.565471 10.3617 -0.565436 8.09992 1.69638C6.55498 3.24132 6.01836 5.51807 6.68731 7.58368L0.154512 14.1165C0.0556172 14.2154 0 14.3493 0 14.4894V17.4727C0 17.7642 0.235863 18 0.527343 18H3.51063C3.65069 18 3.7846 17.9444 3.88346 17.8455L4.62916 17.0993C4.74296 16.9855 4.79858 16.8258 4.78005 16.6657L4.68734 15.8643L5.79765 15.7598C6.05 15.7361 6.2493 15.5368 6.273 15.2844L6.37755 14.1741L7.17887 14.2673C7.32768 14.2874 7.47755 14.2375 7.59033 14.1376C7.70259 14.0372 7.76696 13.894 7.76696 13.7436V12.7617H8.73101C8.87108 12.7617 9.00499 12.7061 9.10384 12.6072L10.4562 11.2728C12.5213 11.9422 14.7587 11.446 16.3036 9.90005C18.5654 7.63828 18.5654 3.95815 16.3036 1.69634ZM14.8117 5.42537C14.1948 6.04232 13.1916 6.04232 12.5746 5.42537C11.9577 4.80841 11.9577 3.80522 12.5746 3.18827C13.1916 2.57131 14.1948 2.57131 14.8117 3.18827C15.4287 3.80522 15.4287 4.80841 14.8117 5.42537Z" fill="#006843"/>
</svg>
