<svg width="22" height="22" viewBox="0 0 22 22" fill="none" xmlns="http://www.w3.org/2000/svg">
<path d="M17.0548 0H4.94528C3.77829 0 2.82886 0.949437 2.82886 2.11643V19.8836C2.82886 21.0506 3.77829 22 4.94528 22H17.0548C18.2218 22 19.1712 21.0506 19.1712 19.8836V2.11643C19.1712 0.949437 18.2218 0 17.0548 0ZM5.72964 3.65647C5.72964 3.30052 6.01821 3.01194 6.37417 3.01194H15.6259C15.9819 3.01194 16.2704 3.30052 16.2704 3.65647V4.92912C16.2704 5.28507 15.9819 5.57365 15.6259 5.57365H6.37417C6.01821 5.57365 5.72964 5.28507 5.72964 4.92912V3.65647ZM7.8996 18.1292C7.8996 18.4852 7.61102 18.7737 7.25507 18.7737H6.37421C6.01826 18.7737 5.72968 18.4852 5.72968 18.1292V17.5185C5.72968 17.1626 6.01826 16.874 6.37421 16.874H7.25507C7.61102 16.874 7.8996 17.1626 7.8996 17.5185V18.1292ZM7.8996 14.3149C7.8996 14.6708 7.61102 14.9594 7.25507 14.9594H6.37421C6.01826 14.9594 5.72968 14.6708 5.72968 14.3149V13.7042C5.72968 13.3482 6.01826 13.0597 6.37421 13.0597H7.25507C7.61102 13.0597 7.8996 13.3482 7.8996 13.7042V14.3149ZM12.1378 18.1292C12.1378 18.4852 11.8492 18.7737 11.4933 18.7737H10.6124C10.2564 18.7737 9.9679 18.4852 9.9679 18.1292V17.5185C9.9679 17.1626 10.2564 16.874 10.6124 16.874H11.4933C11.8492 16.874 12.1378 17.1626 12.1378 17.5185V18.1292ZM12.1378 14.3149C12.1378 14.6708 11.8492 14.9594 11.4933 14.9594H10.6124C10.2564 14.9594 9.9679 14.6708 9.9679 14.3149V13.7042C9.9679 13.3482 10.2564 13.0597 10.6124 13.0597H11.4933C11.8492 13.0597 12.1378 13.3482 12.1378 13.7042V14.3149ZM12.1378 10.5005C12.1378 10.8565 11.8492 11.145 11.4933 11.145H6.37417C6.01821 11.145 5.72964 10.8564 5.72964 10.5005V9.88982C5.72964 9.53386 6.01821 9.24529 6.37417 9.24529H11.4933C11.8492 9.24529 12.1378 9.53386 12.1378 9.88982V10.5005ZM16.376 18.1292C16.376 18.4852 16.0875 18.7737 15.7315 18.7737H14.8507C14.4947 18.7737 14.2061 18.4852 14.2061 18.1292V17.5185C14.2061 17.1626 14.4947 16.874 14.8507 16.874H15.7315C16.0875 16.874 16.376 17.1626 16.376 17.5185V18.1292ZM16.376 14.3149C16.376 14.6708 16.0875 14.9594 15.7315 14.9594H14.8507C14.4947 14.9594 14.2061 14.6708 14.2061 14.3149V13.7042C14.2061 13.3482 14.4947 13.0597 14.8507 13.0597H15.7315C16.0875 13.0597 16.376 13.3482 16.376 13.7042V14.3149ZM16.376 10.5005C16.376 10.8565 16.0875 11.145 15.7315 11.145H14.8507C14.4947 11.145 14.2061 10.8564 14.2061 10.5005V9.88982C14.2061 9.53386 14.4947 9.24529 14.8507 9.24529H15.7315C16.0875 9.24529 16.376 9.53386 16.376 9.88982V10.5005Z" fill="#006843"/>
</svg>
