<svg width="24" height="24" viewBox="0 0 24 24" fill="none" xmlns="http://www.w3.org/2000/svg">
<path d="M16.0048 1.81877H14.2487C14.0296 1.81199 13.8413 1.66133 13.7866 1.44911C13.6202 0.584593 12.8489 -0.0299024 11.969 0.00117326C11.0839 -0.0143351 10.3163 0.610126 10.1514 1.47995C10.0945 1.68633 9.90322 1.82656 9.68929 1.81883H7.99487V4.89957H16.0048V1.81877Z" fill="#006843"/>
<path d="M20.934 22.5828V4.93029C20.9359 4.23271 20.3718 3.66568 19.6743 3.6638C19.6423 3.66374 19.6103 3.66486 19.5784 3.66716H16.929V5.23834C16.929 5.48482 16.775 5.8237 16.5285 5.8237H7.44038C7.19389 5.8237 7.07071 5.48482 7.07071 5.23834V3.66722H4.42126C3.72557 3.61615 3.12015 4.13878 3.06915 4.83453C3.06679 4.86643 3.06567 4.89839 3.06579 4.93035V22.5829C3.04857 23.3484 3.65516 23.9828 4.42061 24C4.42085 24 4.42109 24 4.42132 24H19.5785C20.344 23.9832 20.9508 23.349 20.934 22.5836C20.934 22.5833 20.934 22.5831 20.934 22.5828ZM9.50446 18.5163L7.10149 20.7652C7.02466 20.8572 6.91303 20.913 6.79345 20.9193C6.66472 20.9142 6.54307 20.8589 6.45456 20.7652L5.19149 19.4713C5.02361 19.2833 5.03735 18.9955 5.22227 18.8244C5.40194 18.6483 5.68953 18.6483 5.8692 18.8244L6.79339 19.8102L8.88831 17.8385C9.09835 17.6936 9.38617 17.7463 9.53111 17.9563C9.6494 18.1277 9.63843 18.357 9.50446 18.5163ZM9.50446 13.5871L7.10149 15.8361C7.02466 15.928 6.91303 15.9838 6.79345 15.9901C6.66472 15.985 6.54307 15.9297 6.45456 15.8361L5.19149 14.5422C5.02361 14.3542 5.03735 14.0664 5.22227 13.8952C5.40194 13.7191 5.68953 13.7191 5.8692 13.8952L6.79339 14.881L8.88831 12.9094C9.09835 12.7644 9.38617 12.8171 9.53111 13.0272C9.6494 13.1985 9.63843 13.4278 9.50446 13.5871ZM9.50446 8.65795L7.10149 10.9069C7.02466 10.9988 6.91303 11.0546 6.79345 11.0609C6.66472 11.0558 6.54307 11.0005 6.45456 10.9069L5.19149 9.61298C5.02361 9.425 5.03735 9.13718 5.22227 8.96606C5.40194 8.78992 5.68953 8.78992 5.8692 8.96606L6.79339 9.95187L8.88831 7.98019C9.09835 7.83524 9.38617 7.88796 9.53111 8.098C9.6494 8.26936 9.63843 8.49862 9.50446 8.65795ZM18.4694 20.3031H11.3837C11.1285 20.3031 10.9216 20.0962 10.9216 19.841C10.9216 19.5858 11.1285 19.3789 11.3837 19.3789H18.4693C18.7245 19.3789 18.9315 19.5858 18.9315 19.841C18.9315 20.0962 18.7246 20.3031 18.4694 20.3031ZM18.4694 15.3739H11.3837C11.1285 15.3739 10.9216 15.167 10.9216 14.9118C10.9216 14.6566 11.1285 14.4497 11.3837 14.4497H18.4693C18.7245 14.4497 18.9315 14.6566 18.9315 14.9118C18.9315 15.167 18.7246 15.3739 18.4694 15.3739ZM18.4694 10.4448H11.3837C11.1285 10.4448 10.9216 10.2379 10.9216 9.98265C10.9216 9.72744 11.1285 9.52052 11.3837 9.52052H18.4693C18.7245 9.52052 18.9315 9.72744 18.9315 9.98265C18.9315 10.2379 18.7246 10.4448 18.4694 10.4448Z" fill="#006843"/>
</svg>
